<?xml version="1.0" encoding="utf-8"?>
<!DOCTYPE svg PUBLIC "-//W3C//DTD SVG 1.1//EN" "http://www.w3.org/Graphics/SVG/1.1/DTD/svg11.dtd">
<svg version="1.1" xmlns="http://www.w3.org/2000/svg" xmlns:xlink="http://www.w3.org/1999/xlink" x="0px" y="0px" viewBox="0 0 1000 1000" enable-background="new 0 0 1000 1000" xml:space="preserve">
<g><g transform="translate(0.000000,511.000000) scale(0.100000,-0.100000)"><path style="fill:#FFFF;" d="M2558.4,4159.3C733.4,3571.4,157,3377.9,130.2,3345.4c-30.6-38.3-32.6-218.3-28.7-3286.1l5.7-3245.9l2445.4-764.1L5000-4714.8l2445.5,764.1l2447.4,764.1l5.7,3245.9c3.8,3067.8,1.9,3247.8-28.7,3286.1c-26.8,30.6-609,226-2437.8,815.8c-1321.3,427-2420.6,773.7-2441.6,773.7C4969.4,4932.9,3875.9,4584.4,2558.4,4159.3z M7129.5,3937.1c1154.7-371.5,2093.1-681.7,2087.3-687.5c-17.2-17.2-4182.4-1357.7-4216.8-1357.7c-26.8,0-4188.1,1336.7-4220.6,1355.8c-19.2,9.6,4151.7,1361.6,4211.1,1363.5C5011.5,4611.2,5974.7,4308.6,7129.5,3937.1z M2629.2,838.7c1208.3-388.7,2202.2-708.5,2208-708.5s9.6-107.2,9.6-239.4c0-132.1-7.7-239.4-15.3-239.4c-9.6,0-1005.4,319.8-2213.7,708.6C1407.5,750.6,415.5,1068.5,411.7,1068.5c-3.8,0-7.7,107.2-7.7,239.4s5.7,239.4,13.4,239.4C425.1,1547.2,1419,1229.3,2629.2,838.7z M9596,1309.7v-237.5l-61.3-21.1c-34.5-11.5-1015-325.6-2177.3-700.9C6193-25,5222.1-335.2,5197.3-341l-44-11.5V-115v239.4l2198.4,708.5c1208.4,390.7,2208,712.4,2221.4,712.4C9590.2,1547.2,9596,1487.8,9596,1309.7z M877,484.4l446.2-145.5V101.4c0-132.1-1.9-239.4-5.7-239.4c-3.8,0-206.8,65.1-451.9,143.6c-245.1,78.5-450,143.6-453.9,143.6c-3.8,0-7.7,107.2-7.7,239.4S409.8,628,417.4,628C425.1,628,631.9,562.9,877,484.4z M9596,390.6V153.1l-90-30.6c-51.7-15.3-237.4-74.7-417.5-132.1c-178.1-57.5-344.7-111.1-367.7-116.8l-44-13.4V99.5v239.4l436.6,143.6c239.4,78.5,446.2,143.6,459.6,143.6C9590.2,628,9596,568.6,9596,390.6z M1863.2,70.7L1936-84.4l-76.6-126.4l-74.7-126.4l-76.6,160.9l-78.5,160.9l51.7,86.2c78.5,137.9,90,155.1,101.5,155.1C1788.6,225.9,1824.9,155,1863.2,70.7z M8247.8,193.3c11.5-19.1,44.1-74.7,70.8-122.6l51.7-86.2l-78.5-160.9l-76.6-160.9l-74.7,126.4L8064-84.4l72.8,155.1c38.3,84.3,74.7,155.1,80.4,155.1S8236.3,210.5,8247.8,193.3z M2424.3-15.4c84.3-26.8,354.3-113,599.4-191.5L3468-350.5v-239.4c0-130.2-5.7-237.5-11.5-237.5c-7.7,0-283.4,88.1-612.8,195.4l-601.3,195.3v235.6c0,130.2,5.7,235.5,15.3,235.5C2265.4,34.4,2340.1,11.4,2424.3-15.4z M7757.6-205c0-132.1-3.8-239.4-9.6-239.4c-5.7,0-277.7-86.2-603.2-191.5c-323.6-105.3-595.6-191.5-601.3-191.5c-5.7,0-11.5,107.3-11.5,237.5v239.4l484.5,155.1C7280.8-109.3,7547-23.1,7604.4-3.9c57.5,19.2,116.8,36.4,130.2,36.4C7751.9,34.4,7757.6-25,7757.6-205z M4009.9-620.6l70.9-155.1l-70.9-120.7c-38.3-67-76.6-122.6-82.3-122.6c-5.7,1.9-42.1,70.9-82.3,157.1l-70.9,155.1l70.9,120.6c38.3,67,76.6,122.5,82.3,122.5C3933.3-465.4,3969.7-534.4,4009.9-620.6z M6156.7-588c72.8-101.5,72.8-99.6-40.2-321.7l-45.9-93.8l-74.7,99.6c-82.3,111.1-84.3,103.4,19.2,306.4c32.6,65.1,63.2,114.9,68.9,109.2C6087.7-492.3,6122.2-538.2,6156.7-588z M4630.4-725.9l216.4-70.9v-235.5c0-130.2-5.7-235.6-13.4-235.6c-7.7,0-111.1,30.7-229.8,67l-216.4,69v237.5c0,132.1,5.7,239.4,13.4,239.4C4408.3-655,4511.7-687.6,4630.4-725.9z M5612.8-892.5v-239.4l-218.3-67c-120.6-38.3-224.1-69-229.8-69s-11.5,105.3-11.5,235.6v235.5l206.8,68.9c113,38.3,216.4,70.8,229.8,70.8C5607.1-655,5612.8-714.4,5612.8-892.5z M2640.7-1681.5L4846.8-2369v-683.6c0-377.3-5.7-685.6-15.3-685.6c-7.7,0-1005.4,308.3-2215.6,687.5L413.6-2363.2l-5.7,693.2c-1.9,381.1,1.9,689.4,9.6,683.7C427-990.2,1426.6-1302.3,2640.7-1681.5z M9582.6-2359.4c-15.3-13.4-4389.2-1378.8-4414.1-1378.8c-9.6,0-15.3,308.3-15.3,685.6v683.6l2217.6,691.3l2215.6,693.2l5.7-681.7C9594.1-2041.5,9590.2-2353.6,9582.6-2359.4z"/></g></g>
</svg>